<mxfile host="app.diagrams.net" modified="2021-09-15T10:27:06.466Z" agent="5.0 (Windows NT 10.0; Win64; x64) AppleWebKit/537.36 (KHTML, like Gecko) Chrome/93.0.4577.82 Safari/537.36" etag="TK0AqVIhUcmz3XwJlan_" version="15.0.3" type="github">
  <diagram id="PYidpc2ZP7YQBrO0WTMi" name="Page-1">
    <mxGraphModel dx="1056" dy="600" grid="1" gridSize="10" guides="1" tooltips="1" connect="1" arrows="1" fold="1" page="1" pageScale="1" pageWidth="850" pageHeight="1100" math="0" shadow="0">
      <root>
        <mxCell id="0" />
        <mxCell id="1" parent="0" />
        <mxCell id="z9THj69x5CB_1z2pLQWC-1" value="&lt;b&gt;&lt;font style=&quot;font-size: 20px&quot;&gt;1.Paros&lt;/font&gt;&lt;/b&gt;" style="swimlane;fontStyle=0;align=center;verticalAlign=top;childLayout=stackLayout;horizontal=1;startSize=40;horizontalStack=0;resizeParent=1;resizeParentMax=0;resizeLast=0;collapsible=0;marginBottom=0;html=1;" vertex="1" parent="1">
          <mxGeometry y="40" width="240" height="180" as="geometry" />
        </mxCell>
        <mxCell id="z9THj69x5CB_1z2pLQWC-6" value="" style="line;strokeWidth=1;fillColor=none;align=left;verticalAlign=middle;spacingTop=-1;spacingLeft=3;spacingRight=3;rotatable=0;labelPosition=right;points=[];portConstraint=eastwest;" vertex="1" parent="z9THj69x5CB_1z2pLQWC-1">
          <mxGeometry y="40" width="240" height="20" as="geometry" />
        </mxCell>
        <mxCell id="z9THj69x5CB_1z2pLQWC-8" value="- init(): void" style="text;html=1;strokeColor=none;fillColor=none;align=left;verticalAlign=middle;spacingLeft=4;spacingRight=4;overflow=hidden;rotatable=0;points=[[0,0.5],[1,0.5]];portConstraint=eastwest;" vertex="1" parent="z9THj69x5CB_1z2pLQWC-1">
          <mxGeometry y="60" width="240" height="20" as="geometry" />
        </mxCell>
        <mxCell id="z9THj69x5CB_1z2pLQWC-13" value="- run(): void" style="text;html=1;strokeColor=none;fillColor=none;align=left;verticalAlign=middle;spacingLeft=4;spacingRight=4;overflow=hidden;rotatable=0;points=[[0,0.5],[1,0.5]];portConstraint=eastwest;" vertex="1" parent="z9THj69x5CB_1z2pLQWC-1">
          <mxGeometry y="80" width="240" height="20" as="geometry" />
        </mxCell>
        <mxCell id="z9THj69x5CB_1z2pLQWC-14" value="- runCommandLine(): void" style="text;html=1;strokeColor=none;fillColor=none;align=left;verticalAlign=middle;spacingLeft=4;spacingRight=4;overflow=hidden;rotatable=0;points=[[0,0.5],[1,0.5]];portConstraint=eastwest;" vertex="1" parent="z9THj69x5CB_1z2pLQWC-1">
          <mxGeometry y="100" width="240" height="20" as="geometry" />
        </mxCell>
        <mxCell id="z9THj69x5CB_1z2pLQWC-15" value="- runGUI(): void" style="text;html=1;strokeColor=none;fillColor=none;align=left;verticalAlign=middle;spacingLeft=4;spacingRight=4;overflow=hidden;rotatable=0;points=[[0,0.5],[1,0.5]];portConstraint=eastwest;" vertex="1" parent="z9THj69x5CB_1z2pLQWC-1">
          <mxGeometry y="120" width="240" height="20" as="geometry" />
        </mxCell>
        <mxCell id="z9THj69x5CB_1z2pLQWC-16" value="- showLicense(): void" style="text;html=1;strokeColor=none;fillColor=none;align=left;verticalAlign=middle;spacingLeft=4;spacingRight=4;overflow=hidden;rotatable=0;points=[[0,0.5],[1,0.5]];portConstraint=eastwest;" vertex="1" parent="z9THj69x5CB_1z2pLQWC-1">
          <mxGeometry y="140" width="240" height="20" as="geometry" />
        </mxCell>
        <mxCell id="z9THj69x5CB_1z2pLQWC-17" value="- checkUpdate(): void" style="text;html=1;strokeColor=none;fillColor=none;align=left;verticalAlign=middle;spacingLeft=4;spacingRight=4;overflow=hidden;rotatable=0;points=[[0,0.5],[1,0.5]];portConstraint=eastwest;" vertex="1" parent="z9THj69x5CB_1z2pLQWC-1">
          <mxGeometry y="160" width="240" height="20" as="geometry" />
        </mxCell>
        <mxCell id="z9THj69x5CB_1z2pLQWC-18" value="&lt;b&gt;&lt;font style=&quot;font-size: 20px&quot;&gt;2.Constant&lt;/font&gt;&lt;/b&gt;" style="swimlane;fontStyle=0;align=center;verticalAlign=top;childLayout=stackLayout;horizontal=1;startSize=40;horizontalStack=0;resizeParent=1;resizeParentMax=0;resizeLast=0;collapsible=0;marginBottom=0;html=1;" vertex="1" parent="1">
          <mxGeometry x="280" y="40" width="240" height="400" as="geometry" />
        </mxCell>
        <mxCell id="z9THj69x5CB_1z2pLQWC-19" value="+&amp;nbsp;PROGRAM_NAME: string&lt;br&gt;+&amp;nbsp;PROGRAM_VERSION: string&lt;br&gt;+&amp;nbsp;VERSION_TAG: long&lt;br&gt;+&amp;nbsp;PROGRAM_TITLE: string&lt;br&gt;+&amp;nbsp;SYSTEM_PAROS_USER_LOG: string&lt;br&gt;+&amp;nbsp;FILE_CONFIG_DEFAULT: string&lt;br&gt;+&amp;nbsp;FILE_CONFIG: string&lt;br&gt;+&amp;nbsp;FOLDER_PLUGIN: string&lt;br&gt;+&amp;nbsp;FOLDER_FILTER: string&lt;br&gt;+&amp;nbsp;FOLDER_SESSION_DEFAULT: string&lt;br&gt;+&amp;nbsp;FOLDER_SESSION: string&lt;br&gt;+&amp;nbsp;DBNAME_TEMPLATE: string&lt;br&gt;+&amp;nbsp;DBNAME_UNTITLED_DEFAULT: string&lt;br&gt;+&amp;nbsp;DBNAME_UNTITLED: string&lt;br&gt;+&amp;nbsp;ACCEPTED_LICENSE_DEFAULT: string&lt;br&gt;+ ACCEPTED_LICENSE: string&lt;br&gt;+ MAX_HOST_CONNECTION: int&lt;br&gt;-&amp;nbsp;staticEyeCatcher: string&lt;br&gt;-&amp;nbsp;staticSP: boolean" style="text;html=1;strokeColor=none;fillColor=none;align=left;verticalAlign=middle;spacingLeft=4;spacingRight=4;overflow=hidden;rotatable=0;points=[[0,0.5],[1,0.5]];portConstraint=eastwest;" vertex="1" parent="z9THj69x5CB_1z2pLQWC-18">
          <mxGeometry y="40" width="240" height="280" as="geometry" />
        </mxCell>
        <mxCell id="z9THj69x5CB_1z2pLQWC-20" value="" style="line;strokeWidth=1;fillColor=none;align=left;verticalAlign=middle;spacingTop=-1;spacingLeft=3;spacingRight=3;rotatable=0;labelPosition=right;points=[];portConstraint=eastwest;" vertex="1" parent="z9THj69x5CB_1z2pLQWC-18">
          <mxGeometry y="320" width="240" height="8" as="geometry" />
        </mxCell>
        <mxCell id="z9THj69x5CB_1z2pLQWC-21" value="+ getEyeCatcher(): string&lt;br&gt;+ setEyeCatcher(): void&lt;br&gt;+ setSP(): void&lt;br&gt;+ isSP(): boolean" style="text;html=1;strokeColor=none;fillColor=none;align=left;verticalAlign=middle;spacingLeft=4;spacingRight=4;overflow=hidden;rotatable=0;points=[[0,0.5],[1,0.5]];portConstraint=eastwest;" vertex="1" parent="z9THj69x5CB_1z2pLQWC-18">
          <mxGeometry y="328" width="240" height="72" as="geometry" />
        </mxCell>
        <mxCell id="z9THj69x5CB_1z2pLQWC-28" value="&lt;b&gt;&lt;font style=&quot;font-size: 20px&quot;&gt;&lt;i&gt;3.FileXML&lt;/i&gt;&lt;/font&gt;&lt;/b&gt;" style="swimlane;fontStyle=0;align=center;verticalAlign=top;childLayout=stackLayout;horizontal=1;startSize=40;horizontalStack=0;resizeParent=1;resizeParentMax=0;resizeLast=0;collapsible=0;marginBottom=0;html=1;" vertex="1" parent="1">
          <mxGeometry x="560" y="40" width="240" height="60" as="geometry" />
        </mxCell>
        <mxCell id="z9THj69x5CB_1z2pLQWC-30" value="" style="line;strokeWidth=1;fillColor=none;align=left;verticalAlign=middle;spacingTop=-1;spacingLeft=3;spacingRight=3;rotatable=0;labelPosition=right;points=[];portConstraint=eastwest;" vertex="1" parent="z9THj69x5CB_1z2pLQWC-28">
          <mxGeometry y="40" width="240" height="20" as="geometry" />
        </mxCell>
        <mxCell id="z9THj69x5CB_1z2pLQWC-32" value="&lt;b&gt;&lt;font style=&quot;font-size: 20px&quot;&gt;&lt;i&gt;4.AbstractParam&lt;/i&gt;&lt;/font&gt;&lt;/b&gt;" style="swimlane;fontStyle=0;align=center;verticalAlign=top;childLayout=stackLayout;horizontal=1;startSize=40;horizontalStack=0;resizeParent=1;resizeParentMax=0;resizeLast=0;collapsible=0;marginBottom=0;html=1;" vertex="1" parent="1">
          <mxGeometry x="840" y="40" width="240" height="60" as="geometry" />
        </mxCell>
        <mxCell id="z9THj69x5CB_1z2pLQWC-34" value="" style="line;strokeWidth=1;fillColor=none;align=left;verticalAlign=middle;spacingTop=-1;spacingLeft=3;spacingRight=3;rotatable=0;labelPosition=right;points=[];portConstraint=eastwest;" vertex="1" parent="z9THj69x5CB_1z2pLQWC-32">
          <mxGeometry y="40" width="240" height="20" as="geometry" />
        </mxCell>
        <mxCell id="z9THj69x5CB_1z2pLQWC-36" value="&lt;b&gt;&lt;font style=&quot;font-size: 20px&quot;&gt;5.Control&lt;/font&gt;&lt;/b&gt;" style="swimlane;fontStyle=0;align=center;verticalAlign=top;childLayout=stackLayout;horizontal=1;startSize=40;horizontalStack=0;resizeParent=1;resizeParentMax=0;resizeLast=0;collapsible=0;marginBottom=0;html=1;" vertex="1" parent="1">
          <mxGeometry x="1120" y="40" width="240" height="170" as="geometry" />
        </mxCell>
        <mxCell id="z9THj69x5CB_1z2pLQWC-38" value="" style="line;strokeWidth=1;fillColor=none;align=left;verticalAlign=middle;spacingTop=-1;spacingLeft=3;spacingRight=3;rotatable=0;labelPosition=right;points=[];portConstraint=eastwest;" vertex="1" parent="z9THj69x5CB_1z2pLQWC-36">
          <mxGeometry y="40" width="240" height="20" as="geometry" />
        </mxCell>
        <mxCell id="z9THj69x5CB_1z2pLQWC-39" value="- init(): void&lt;br&gt;# addExtension(): void&lt;br&gt;+ shutdown(): void&lt;br&gt;+ initSingletonWithView(): void&lt;br&gt;+ initSingletonWithoutView(): void&lt;br&gt;+ runCommandLineNewSession(): void&lt;br&gt;+ runCommandLineOpenSession(): void&lt;br&gt;&lt;span style=&quot;color: rgba(0 , 0 , 0 , 0) ; font-family: monospace ; font-size: 0px&quot;&gt;%3CmxGraphModel%3E%3Croot%3E%3CmxCell%20id%3D%220%22%2F%3E%3CmxCell%20id%3D%221%22%20parent%3D%220%22%2F%3E%3CmxCell%20id%3D%222%22%20value%3D%22%26lt%3Bb%26gt%3B%26lt%3Bfont%20style%3D%26quot%3Bfont-size%3A%2020px%26quot%3B%26gt%3B2.Constant%26lt%3B%2Ffont%26gt%3B%26lt%3B%2Fb%26gt%3B%22%20style%3D%22swimlane%3BfontStyle%3D0%3Balign%3Dcenter%3BverticalAlign%3Dtop%3BchildLayout%3DstackLayout%3Bhorizontal%3D1%3BstartSize%3D40%3BhorizontalStack%3D0%3BresizeParent%3D1%3BresizeParentMax%3D0%3BresizeLast%3D0%3Bcollapsible%3D0%3BmarginBottom%3D0%3Bhtml%3D1%3B%22%20vertex%3D%221%22%20parent%3D%221%22%3E%3CmxGeometry%20x%3D%22280%22%20y%3D%2240%22%20width%3D%22240%22%20height%3D%22400%22%20as%3D%22geometry%22%2F%3E%3C%2FmxCell%3E%3CmxCell%20id%3D%223%22%20value%3D%22%2B%26amp%3Bnbsp%3BPROGRAM_NAME%3A%20string%26lt%3Bbr%26gt%3B%2B%26amp%3Bnbsp%3BPROGRAM_VERSION%3A%20string%26lt%3Bbr%26gt%3B%2B%26amp%3Bnbsp%3BVERSION_TAG%3A%20long%26lt%3Bbr%26gt%3B%2B%26amp%3Bnbsp%3BPROGRAM_TITLE%3A%20string%26lt%3Bbr%26gt%3B%2B%26amp%3Bnbsp%3BSYSTEM_PAROS_USER_LOG%3A%20string%26lt%3Bbr%26gt%3B%2B%26amp%3Bnbsp%3BFILE_CONFIG_DEFAULT%3A%20string%26lt%3Bbr%26gt%3B%2B%26amp%3Bnbsp%3BFILE_CONFIG%3A%20string%26lt%3Bbr%26gt%3B%2B%26amp%3Bnbsp%3BFOLDER_PLUGIN%3A%20string%26lt%3Bbr%26gt%3B%2B%26amp%3Bnbsp%3BFOLDER_FILTER%3A%20string%26lt%3Bbr%26gt%3B%2B%26amp%3Bnbsp%3BFOLDER_SESSION_DEFAULT%3A%20string%26lt%3Bbr%26gt%3B%2B%26amp%3Bnbsp%3BFOLDER_SESSION%3A%20string%26lt%3Bbr%26gt%3B%2B%26amp%3Bnbsp%3BDBNAME_TEMPLATE%3A%20string%26lt%3Bbr%26gt%3B%2B%26amp%3Bnbsp%3BDBNAME_UNTITLED_DEFAULT%3A%20string%26lt%3Bbr%26gt%3B%2B%26amp%3Bnbsp%3BDBNAME_UNTITLED%3A%20string%26lt%3Bbr%26gt%3B%2B%26amp%3Bnbsp%3BACCEPTED_LICENSE_DEFAULT%3A%20string%26lt%3Bbr%26gt%3B%2B%20ACCEPTED_LICENSE%3A%20string%26lt%3Bbr%26gt%3B%2B%20MAX_HOST_CONNECTION%3A%20int%26lt%3Bbr%26gt%3B-%26amp%3Bnbsp%3BstaticEyeCatcher%3A%20string%26lt%3Bbr%26gt%3B-%26amp%3Bnbsp%3BstaticSP%3A%20boolean%22%20style%3D%22text%3Bhtml%3D1%3BstrokeColor%3Dnone%3BfillColor%3Dnone%3Balign%3Dleft%3BverticalAlign%3Dmiddle%3BspacingLeft%3D4%3BspacingRight%3D4%3Boverflow%3Dhidden%3Brotatable%3D0%3Bpoints%3D%5B%5B0%2C0.5%5D%2C%5B1%2C0.5%5D%5D%3BportConstraint%3Deastwest%3B%22%20vertex%3D%221%22%20parent%3D%222%22%3E%3CmxGeometry%20y%3D%2240%22%20width%3D%22240%22%20height%3D%22280%22%20as%3D%22geometry%22%2F%3E%3C%2FmxCell%3E%3CmxCell%20id%3D%224%22%20value%3D%22%22%20style%3D%22line%3BstrokeWidth%3D1%3BfillColor%3Dnone%3Balign%3Dleft%3BverticalAlign%3Dmiddle%3BspacingTop%3D-1%3BspacingLeft%3D3%3BspacingRight%3D3%3Brotatable%3D0%3BlabelPosition%3Dright%3Bpoints%3D%5B%5D%3BportConstraint%3Deastwest%3B%22%20vertex%3D%221%22%20parent%3D%222%22%3E%3CmxGeometry%20y%3D%22320%22%20width%3D%22240%22%20height%3D%228%22%20as%3D%22geometry%22%2F%3E%3C%2FmxCell%3E%3CmxCell%20id%3D%225%22%20value%3D%22%2B%20String%20getEyeCatcher()%26lt%3Bbr%26gt%3B%2B%26amp%3Bnbsp%3Bvoid%20setEyeCatcher()%26lt%3Bbr%26gt%3B%2B%20void%20setSP()%26lt%3Bbr%26gt%3B%2B%26amp%3Bnbsp%3Bboolean%20isSP()%22%20style%3D%22text%3Bhtml%3D1%3BstrokeColor%3Dnone%3BfillColor%3Dnone%3Balign%3Dleft%3BverticalAlign%3Dmiddle%3BspacingLeft%3D4%3BspacingRight%3D4%3Boverflow%3Dhidden%3Brotatable%3D0%3Bpoints%3D%5B%5B0%2C0.5%5D%2C%5B1%2C0.5%5D%5D%3BportConstraint%3Deastwest%3B%22%20vertex%3D%221%22%20parent%3D%222%22%3E%3CmxGeometry%20y%3D%22328%22%20width%3D%22240%22%20height%3D%2272%22%20as%3D%22geometry%22%2F%3E%3C%2FmxCell%3E%3C%2Froot%3E%3C%2FmxGraphModel%3E&lt;/span&gt;" style="text;html=1;strokeColor=none;fillColor=none;align=left;verticalAlign=middle;spacingLeft=4;spacingRight=4;overflow=hidden;rotatable=0;points=[[0,0.5],[1,0.5]];portConstraint=eastwest;" vertex="1" parent="z9THj69x5CB_1z2pLQWC-36">
          <mxGeometry y="60" width="240" height="110" as="geometry" />
        </mxCell>
        <mxCell id="z9THj69x5CB_1z2pLQWC-40" value="&lt;b&gt;&lt;font style=&quot;font-size: 20px&quot;&gt;&lt;i&gt;6.AbstractControl&lt;/i&gt;&lt;/font&gt;&lt;/b&gt;" style="swimlane;fontStyle=0;align=center;verticalAlign=top;childLayout=stackLayout;horizontal=1;startSize=40;horizontalStack=0;resizeParent=1;resizeParentMax=0;resizeLast=0;collapsible=0;marginBottom=0;html=1;" vertex="1" parent="1">
          <mxGeometry x="1400" y="40" width="240" height="60" as="geometry" />
        </mxCell>
        <mxCell id="z9THj69x5CB_1z2pLQWC-42" value="" style="line;strokeWidth=1;fillColor=none;align=left;verticalAlign=middle;spacingTop=-1;spacingLeft=3;spacingRight=3;rotatable=0;labelPosition=right;points=[];portConstraint=eastwest;" vertex="1" parent="z9THj69x5CB_1z2pLQWC-40">
          <mxGeometry y="40" width="240" height="20" as="geometry" />
        </mxCell>
        <mxCell id="z9THj69x5CB_1z2pLQWC-44" value="&lt;b&gt;&lt;font style=&quot;font-size: 20px&quot;&gt;7.Proxy&lt;/font&gt;&lt;/b&gt;" style="swimlane;fontStyle=0;align=center;verticalAlign=top;childLayout=stackLayout;horizontal=1;startSize=40;horizontalStack=0;resizeParent=1;resizeParentMax=0;resizeLast=0;collapsible=0;marginBottom=0;html=1;" vertex="1" parent="1">
          <mxGeometry x="1680" y="40" width="240" height="250" as="geometry" />
        </mxCell>
        <mxCell id="z9THj69x5CB_1z2pLQWC-45" value="-&amp;nbsp;reverseProxy: boolean&lt;br&gt;-&amp;nbsp;reverseProxyHost: string" style="text;html=1;strokeColor=none;fillColor=none;align=left;verticalAlign=middle;spacingLeft=4;spacingRight=4;overflow=hidden;rotatable=0;points=[[0,0.5],[1,0.5]];portConstraint=eastwest;" vertex="1" parent="z9THj69x5CB_1z2pLQWC-44">
          <mxGeometry y="40" width="240" height="40" as="geometry" />
        </mxCell>
        <mxCell id="z9THj69x5CB_1z2pLQWC-46" value="" style="line;strokeWidth=1;fillColor=none;align=left;verticalAlign=middle;spacingTop=-1;spacingLeft=3;spacingRight=3;rotatable=0;labelPosition=right;points=[];portConstraint=eastwest;" vertex="1" parent="z9THj69x5CB_1z2pLQWC-44">
          <mxGeometry y="80" width="240" height="8" as="geometry" />
        </mxCell>
        <mxCell id="z9THj69x5CB_1z2pLQWC-47" value="+ startServer(): void&lt;br&gt;+ stopServer(): void&lt;br&gt;+ setSerialize(): void&lt;br&gt;+ addProxyListener(): void&lt;br&gt;+ removeProxyListener(): void&lt;br&gt;+ isReverseProxy(): boolean&lt;br&gt;+ setReverseProxy(): void&lt;br&gt;+ getReverseProxyHost(): string&lt;br&gt;+ setReverseProxyHost(): void&lt;br&gt;+ setEnableCacheProcessing(): void&lt;br&gt;+ addCacheProcessingList(): void" style="text;html=1;strokeColor=none;fillColor=none;align=left;verticalAlign=middle;spacingLeft=4;spacingRight=4;overflow=hidden;rotatable=0;points=[[0,0.5],[1,0.5]];portConstraint=eastwest;" vertex="1" parent="z9THj69x5CB_1z2pLQWC-44">
          <mxGeometry y="88" width="240" height="162" as="geometry" />
        </mxCell>
        <mxCell id="z9THj69x5CB_1z2pLQWC-48" value="&lt;b&gt;&lt;font style=&quot;font-size: 20px&quot;&gt;8.MenuFileControl&lt;/font&gt;&lt;/b&gt;" style="swimlane;fontStyle=0;align=center;verticalAlign=top;childLayout=stackLayout;horizontal=1;startSize=40;horizontalStack=0;resizeParent=1;resizeParentMax=0;resizeLast=0;collapsible=0;marginBottom=0;html=1;" vertex="1" parent="1">
          <mxGeometry x="1960" y="40" width="240" height="182" as="geometry" />
        </mxCell>
        <mxCell id="z9THj69x5CB_1z2pLQWC-50" value="" style="line;strokeWidth=1;fillColor=none;align=left;verticalAlign=middle;spacingTop=-1;spacingLeft=3;spacingRight=3;rotatable=0;labelPosition=right;points=[];portConstraint=eastwest;" vertex="1" parent="z9THj69x5CB_1z2pLQWC-48">
          <mxGeometry y="40" width="240" height="20" as="geometry" />
        </mxCell>
        <mxCell id="z9THj69x5CB_1z2pLQWC-51" value="+ exit(): void&lt;br&gt;+ newSession(): void&lt;br&gt;+ openSession(): void&lt;br&gt;+ saveSession(): void&lt;br&gt;+ saveAsSession(): void&lt;br&gt;+ properties(): void&lt;br&gt;+ sessionOpened(): void&lt;br&gt;+ sessionSaved(): void" style="text;html=1;strokeColor=none;fillColor=none;align=left;verticalAlign=middle;spacingLeft=4;spacingRight=4;overflow=hidden;rotatable=0;points=[[0,0.5],[1,0.5]];portConstraint=eastwest;" vertex="1" parent="z9THj69x5CB_1z2pLQWC-48">
          <mxGeometry y="60" width="240" height="122" as="geometry" />
        </mxCell>
        <mxCell id="z9THj69x5CB_1z2pLQWC-52" value="&lt;b&gt;&lt;font style=&quot;font-size: 20px&quot;&gt;9.MenuToolsControl&lt;/font&gt;&lt;/b&gt;" style="swimlane;fontStyle=0;align=center;verticalAlign=top;childLayout=stackLayout;horizontal=1;startSize=40;horizontalStack=0;resizeParent=1;resizeParentMax=0;resizeLast=0;collapsible=0;marginBottom=0;html=1;" vertex="1" parent="1">
          <mxGeometry x="2240" y="40" width="240" height="82" as="geometry" />
        </mxCell>
        <mxCell id="z9THj69x5CB_1z2pLQWC-54" value="" style="line;strokeWidth=1;fillColor=none;align=left;verticalAlign=middle;spacingTop=-1;spacingLeft=3;spacingRight=3;rotatable=0;labelPosition=right;points=[];portConstraint=eastwest;" vertex="1" parent="z9THj69x5CB_1z2pLQWC-52">
          <mxGeometry y="40" width="240" height="20" as="geometry" />
        </mxCell>
        <mxCell id="z9THj69x5CB_1z2pLQWC-55" value="+ options(): void" style="text;html=1;strokeColor=none;fillColor=none;align=left;verticalAlign=middle;spacingLeft=4;spacingRight=4;overflow=hidden;rotatable=0;points=[[0,0.5],[1,0.5]];portConstraint=eastwest;" vertex="1" parent="z9THj69x5CB_1z2pLQWC-52">
          <mxGeometry y="60" width="240" height="22" as="geometry" />
        </mxCell>
        <mxCell id="z9THj69x5CB_1z2pLQWC-56" value="&lt;b&gt;&lt;font style=&quot;font-size: 20px&quot;&gt;10.ProxyServer&lt;/font&gt;&lt;/b&gt;" style="swimlane;fontStyle=0;align=center;verticalAlign=top;childLayout=stackLayout;horizontal=1;startSize=40;horizontalStack=0;resizeParent=1;resizeParentMax=0;resizeLast=0;collapsible=0;marginBottom=0;html=1;" vertex="1" parent="1">
          <mxGeometry x="2520" y="40" width="240" height="392" as="geometry" />
        </mxCell>
        <mxCell id="z9THj69x5CB_1z2pLQWC-57" value="#&amp;nbsp;thread: Thread&lt;br&gt;#&amp;nbsp;PORT_TIME_OUT: int&lt;br&gt;#&amp;nbsp;proxySocket:&amp;nbsp;ServerSocket&lt;br&gt;#&amp;nbsp;isProxyRunning: boolean&lt;br&gt;#&amp;nbsp;proxyParam:&amp;nbsp;ProxyParam&lt;br&gt;#&amp;nbsp;connectionParam:&amp;nbsp;ConnectionParam&lt;br&gt;#&amp;nbsp;listenerList: Vector&lt;br&gt;#&amp;nbsp;serialize: boolean&lt;br&gt;#&amp;nbsp;enableCacheProcessing: boolean&lt;br&gt;#&amp;nbsp;cacheProcessingList: boolean" style="text;html=1;strokeColor=none;fillColor=none;align=left;verticalAlign=middle;spacingLeft=4;spacingRight=4;overflow=hidden;rotatable=0;points=[[0,0.5],[1,0.5]];portConstraint=eastwest;" vertex="1" parent="z9THj69x5CB_1z2pLQWC-56">
          <mxGeometry y="40" width="240" height="150" as="geometry" />
        </mxCell>
        <mxCell id="z9THj69x5CB_1z2pLQWC-58" value="" style="line;strokeWidth=1;fillColor=none;align=left;verticalAlign=middle;spacingTop=-1;spacingLeft=3;spacingRight=3;rotatable=0;labelPosition=right;points=[];portConstraint=eastwest;" vertex="1" parent="z9THj69x5CB_1z2pLQWC-56">
          <mxGeometry y="190" width="240" height="8" as="geometry" />
        </mxCell>
        <mxCell id="z9THj69x5CB_1z2pLQWC-59" value="+ isEnableCacheProcessing(): boolean&lt;br&gt;+ setEnableCacheProcessing(): void&lt;br&gt;+ isSerialize(): boolean&lt;br&gt;+&amp;nbsp;setProxyParam(): void&lt;br&gt;+&amp;nbsp;setConnectionParam(): void&lt;br&gt;+&amp;nbsp;startServer(): int&lt;br&gt;+&amp;nbsp;stopServer(): boolean&lt;br&gt;+&amp;nbsp;run(): void&lt;br&gt;+&amp;nbsp;addProxyListener(): void&lt;br&gt;+&amp;nbsp;removeProxyListener(): void&lt;br&gt;+&amp;nbsp;isAnyProxyThreadRunning(): boolean&lt;br&gt;+&amp;nbsp;setSerialize(): void&lt;br&gt;+&amp;nbsp;addCacheProcessingList(): void&lt;br&gt;" style="text;html=1;strokeColor=none;fillColor=none;align=left;verticalAlign=middle;spacingLeft=4;spacingRight=4;overflow=hidden;rotatable=0;points=[[0,0.5],[1,0.5]];portConstraint=eastwest;" vertex="1" parent="z9THj69x5CB_1z2pLQWC-56">
          <mxGeometry y="198" width="240" height="194" as="geometry" />
        </mxCell>
        <mxCell id="z9THj69x5CB_1z2pLQWC-60" value="&lt;b&gt;&lt;font style=&quot;font-size: 20px&quot;&gt;11.&lt;/font&gt;&lt;/b&gt;&lt;span style=&quot;font-size: 20px&quot;&gt;&lt;b&gt;ProxyServerSSL&lt;/b&gt;&lt;/span&gt;" style="swimlane;fontStyle=0;align=center;verticalAlign=top;childLayout=stackLayout;horizontal=1;startSize=40;horizontalStack=0;resizeParent=1;resizeParentMax=0;resizeLast=0;collapsible=0;marginBottom=0;html=1;" vertex="1" parent="1">
          <mxGeometry y="560" width="240" height="60" as="geometry" />
        </mxCell>
        <mxCell id="z9THj69x5CB_1z2pLQWC-62" value="" style="line;strokeWidth=1;fillColor=none;align=left;verticalAlign=middle;spacingTop=-1;spacingLeft=3;spacingRight=3;rotatable=0;labelPosition=right;points=[];portConstraint=eastwest;" vertex="1" parent="z9THj69x5CB_1z2pLQWC-60">
          <mxGeometry y="40" width="240" height="20" as="geometry" />
        </mxCell>
        <mxCell id="z9THj69x5CB_1z2pLQWC-65" value="&lt;b&gt;&lt;font style=&quot;font-size: 20px&quot;&gt;12.&lt;/font&gt;&lt;/b&gt;&lt;span style=&quot;font-size: 20px&quot;&gt;&lt;b&gt;ProxyParam&lt;/b&gt;&lt;/span&gt;" style="swimlane;fontStyle=0;align=center;verticalAlign=top;childLayout=stackLayout;horizontal=1;startSize=40;horizontalStack=0;resizeParent=1;resizeParentMax=0;resizeLast=0;collapsible=0;marginBottom=0;html=1;" vertex="1" parent="1">
          <mxGeometry x="280" y="560" width="250" height="460" as="geometry" />
        </mxCell>
        <mxCell id="z9THj69x5CB_1z2pLQWC-66" value="-&amp;nbsp;PROXY_IP: string&lt;br&gt;-&amp;nbsp;PROXY_PORT: string&lt;br&gt;-&amp;nbsp;USE_REVERSE_PROXY: string&lt;br&gt;-&amp;nbsp;REVERSE_PROXY_IP: string&lt;br&gt;-&amp;nbsp;REVERSE_PROXY_HTTP_PORT: string&lt;br&gt;-&amp;nbsp;REVERSE_PROXY_HTTPS_PORT: string&lt;br&gt;-&amp;nbsp;proxyIp: string&lt;br&gt;-&amp;nbsp;proxyPort: int&lt;br&gt;-&amp;nbsp;proxySSLPort: int&lt;br&gt;-&amp;nbsp;useReverseProxy: int&lt;br&gt;-&amp;nbsp;reverseProxyIp: string&lt;br&gt;-&amp;nbsp;reverseProxyHttpPort: int&lt;br&gt;-&amp;nbsp;reverseProxyHttpsPort: int" style="text;html=1;strokeColor=none;fillColor=none;align=left;verticalAlign=middle;spacingLeft=4;spacingRight=4;overflow=hidden;rotatable=0;points=[[0,0.5],[1,0.5]];portConstraint=eastwest;" vertex="1" parent="z9THj69x5CB_1z2pLQWC-65">
          <mxGeometry y="40" width="250" height="200" as="geometry" />
        </mxCell>
        <mxCell id="z9THj69x5CB_1z2pLQWC-67" value="" style="line;strokeWidth=1;fillColor=none;align=left;verticalAlign=middle;spacingTop=-1;spacingLeft=3;spacingRight=3;rotatable=0;labelPosition=right;points=[];portConstraint=eastwest;" vertex="1" parent="z9THj69x5CB_1z2pLQWC-65">
          <mxGeometry y="240" width="250" height="8" as="geometry" />
        </mxCell>
        <mxCell id="z9THj69x5CB_1z2pLQWC-68" value="#&amp;nbsp;parse(): void&lt;br&gt;+&amp;nbsp;getProxyIp(): string&lt;br&gt;+&amp;nbsp;setProxyIp(): void&lt;br&gt;+&amp;nbsp;getProxyPort(): int&lt;br&gt;+&amp;nbsp;setProxyPort(): void&lt;br&gt;+&amp;nbsp;getProxySSLPort(): int&lt;br&gt;+&amp;nbsp;getReverseProxyIp(): string&lt;br&gt;+&amp;nbsp;setReverseProxyIp(): void&lt;br&gt;+&amp;nbsp;getReverseProxyHttpPort(): int&lt;br&gt;+&amp;nbsp;setReverseProxyHttpPort(): void&lt;br&gt;+&amp;nbsp;getReverseProxyHttpsPort(): int&lt;br&gt;+&amp;nbsp;setReverseProxyHttpsPort(): void&lt;br&gt;+&amp;nbsp;isUseReverseProxy(): boolean&lt;br&gt;+&amp;nbsp;setUseReverseProxy(): void" style="text;html=1;strokeColor=none;fillColor=none;align=left;verticalAlign=middle;spacingLeft=4;spacingRight=4;overflow=hidden;rotatable=0;points=[[0,0.5],[1,0.5]];portConstraint=eastwest;" vertex="1" parent="z9THj69x5CB_1z2pLQWC-65">
          <mxGeometry y="248" width="250" height="212" as="geometry" />
        </mxCell>
        <mxCell id="z9THj69x5CB_1z2pLQWC-69" value="&lt;span style=&quot;font-size: 20px&quot;&gt;&lt;b&gt;13.ProxyThread&lt;/b&gt;&lt;/span&gt;" style="swimlane;fontStyle=0;align=center;verticalAlign=top;childLayout=stackLayout;horizontal=1;startSize=40;horizontalStack=0;resizeParent=1;resizeParentMax=0;resizeLast=0;collapsible=0;marginBottom=0;html=1;" vertex="1" parent="1">
          <mxGeometry x="560" y="560" width="240" height="310" as="geometry" />
        </mxCell>
        <mxCell id="z9THj69x5CB_1z2pLQWC-70" value="-&amp;nbsp;TIME_OUT: int&lt;br&gt;-&amp;nbsp;CONNECT_HTTP_200: string" style="text;html=1;strokeColor=none;fillColor=none;align=left;verticalAlign=middle;spacingLeft=4;spacingRight=4;overflow=hidden;rotatable=0;points=[[0,0.5],[1,0.5]];portConstraint=eastwest;" vertex="1" parent="z9THj69x5CB_1z2pLQWC-69">
          <mxGeometry y="40" width="240" height="50" as="geometry" />
        </mxCell>
        <mxCell id="z9THj69x5CB_1z2pLQWC-71" value="" style="line;strokeWidth=1;fillColor=none;align=left;verticalAlign=middle;spacingTop=-1;spacingLeft=3;spacingRight=3;rotatable=0;labelPosition=right;points=[];portConstraint=eastwest;" vertex="1" parent="z9THj69x5CB_1z2pLQWC-69">
          <mxGeometry y="90" width="240" height="8" as="geometry" />
        </mxCell>
        <mxCell id="z9THj69x5CB_1z2pLQWC-72" value="+&amp;nbsp;start(): void&lt;br&gt;-&amp;nbsp;beginSSL(): void&lt;br&gt;+&amp;nbsp;run(): void&lt;br&gt;#&amp;nbsp;processHttp(): void&lt;br&gt;-&amp;nbsp;isConnectionClose(): boolean&lt;br&gt;#&amp;nbsp;disconnect(): void&lt;br&gt;-&amp;nbsp;notifyListenerRequestSend(): void&lt;br&gt;-&amp;nbsp;notifyListenerResponseReceive(): void&lt;br&gt;-&amp;nbsp;isRecursive(): boolean&lt;br&gt;-&amp;nbsp;modifyHeader(): void&lt;br&gt;#&amp;nbsp;isProcessCache(): boolean&lt;br&gt;" style="text;html=1;strokeColor=none;fillColor=none;align=left;verticalAlign=middle;spacingLeft=4;spacingRight=4;overflow=hidden;rotatable=0;points=[[0,0.5],[1,0.5]];portConstraint=eastwest;" vertex="1" parent="z9THj69x5CB_1z2pLQWC-69">
          <mxGeometry y="98" width="240" height="212" as="geometry" />
        </mxCell>
        <mxCell id="z9THj69x5CB_1z2pLQWC-73" value="&lt;b&gt;&lt;font style=&quot;font-size: 20px&quot;&gt;&lt;i&gt;14.Database&lt;/i&gt;&lt;/font&gt;&lt;/b&gt;" style="swimlane;fontStyle=0;align=center;verticalAlign=top;childLayout=stackLayout;horizontal=1;startSize=40;horizontalStack=0;resizeParent=1;resizeParentMax=0;resizeLast=0;collapsible=0;marginBottom=0;html=1;" vertex="1" parent="1">
          <mxGeometry x="840" y="560" width="240" height="60" as="geometry" />
        </mxCell>
        <mxCell id="z9THj69x5CB_1z2pLQWC-74" value="" style="line;strokeWidth=1;fillColor=none;align=left;verticalAlign=middle;spacingTop=-1;spacingLeft=3;spacingRight=3;rotatable=0;labelPosition=right;points=[];portConstraint=eastwest;" vertex="1" parent="z9THj69x5CB_1z2pLQWC-73">
          <mxGeometry y="40" width="240" height="20" as="geometry" />
        </mxCell>
        <mxCell id="z9THj69x5CB_1z2pLQWC-75" value="&lt;span style=&quot;font-size: 20px&quot;&gt;&lt;b&gt;15. Model&lt;/b&gt;&lt;/span&gt;" style="swimlane;fontStyle=0;align=center;verticalAlign=top;childLayout=stackLayout;horizontal=1;startSize=40;horizontalStack=0;resizeParent=1;resizeParentMax=0;resizeLast=0;collapsible=0;marginBottom=0;html=1;" vertex="1" parent="1">
          <mxGeometry x="1120" y="560" width="240" height="180" as="geometry" />
        </mxCell>
        <mxCell id="z9THj69x5CB_1z2pLQWC-76" value="-&amp;nbsp;DBNAME_TEMPLATE: string&lt;br&gt;-&amp;nbsp;DBNAME_UNTITLED: string&lt;br&gt;-&amp;nbsp;DBNAME_COPY: int&lt;br&gt;-&amp;nbsp;currentDBNameUntitled: string" style="text;html=1;strokeColor=none;fillColor=none;align=left;verticalAlign=middle;spacingLeft=4;spacingRight=4;overflow=hidden;rotatable=0;points=[[0,0.5],[1,0.5]];portConstraint=eastwest;" vertex="1" parent="z9THj69x5CB_1z2pLQWC-75">
          <mxGeometry y="40" width="240" height="70" as="geometry" />
        </mxCell>
        <mxCell id="z9THj69x5CB_1z2pLQWC-77" value="" style="line;strokeWidth=1;fillColor=none;align=left;verticalAlign=middle;spacingTop=-1;spacingLeft=3;spacingRight=3;rotatable=0;labelPosition=right;points=[];portConstraint=eastwest;" vertex="1" parent="z9THj69x5CB_1z2pLQWC-75">
          <mxGeometry y="110" width="240" height="8" as="geometry" />
        </mxCell>
        <mxCell id="z9THj69x5CB_1z2pLQWC-78" value="+&amp;nbsp;init(): void&lt;br&gt;+&amp;nbsp;copySessionDb(): void&lt;br&gt;+&amp;nbsp;createAndOpenUntitledDb(): void&lt;br&gt;" style="text;html=1;strokeColor=none;fillColor=none;align=left;verticalAlign=middle;spacingLeft=4;spacingRight=4;overflow=hidden;rotatable=0;points=[[0,0.5],[1,0.5]];portConstraint=eastwest;" vertex="1" parent="z9THj69x5CB_1z2pLQWC-75">
          <mxGeometry y="118" width="240" height="62" as="geometry" />
        </mxCell>
        <mxCell id="z9THj69x5CB_1z2pLQWC-79" value="&lt;span style=&quot;font-size: 20px&quot;&gt;&lt;b&gt;16.Session&lt;/b&gt;&lt;/span&gt;" style="swimlane;fontStyle=0;align=center;verticalAlign=top;childLayout=stackLayout;horizontal=1;startSize=40;horizontalStack=0;resizeParent=1;resizeParentMax=0;resizeLast=0;collapsible=0;marginBottom=0;html=1;" vertex="1" parent="1">
          <mxGeometry x="1400" y="560" width="240" height="390" as="geometry" />
        </mxCell>
        <mxCell id="z9THj69x5CB_1z2pLQWC-80" value="-&amp;nbsp;ROOT: string&lt;br&gt;-&amp;nbsp;SESSION_DESC: string&lt;br&gt;-&amp;nbsp;SESSION_ID: string&lt;br&gt;-&amp;nbsp;SESSION_NAME: string&lt;br&gt;-&amp;nbsp;fileName: string&lt;br&gt;-&amp;nbsp;sessionDesc: string&lt;br&gt;-&amp;nbsp;sessionId: long&lt;br&gt;-&amp;nbsp;sessionName: string" style="text;html=1;strokeColor=none;fillColor=none;align=left;verticalAlign=middle;spacingLeft=4;spacingRight=4;overflow=hidden;rotatable=0;points=[[0,0.5],[1,0.5]];portConstraint=eastwest;" vertex="1" parent="z9THj69x5CB_1z2pLQWC-79">
          <mxGeometry y="40" width="240" height="130" as="geometry" />
        </mxCell>
        <mxCell id="z9THj69x5CB_1z2pLQWC-81" value="" style="line;strokeWidth=1;fillColor=none;align=left;verticalAlign=middle;spacingTop=-1;spacingLeft=3;spacingRight=3;rotatable=0;labelPosition=right;points=[];portConstraint=eastwest;" vertex="1" parent="z9THj69x5CB_1z2pLQWC-79">
          <mxGeometry y="170" width="240" height="8" as="geometry" />
        </mxCell>
        <mxCell id="z9THj69x5CB_1z2pLQWC-82" value="+&amp;nbsp;discard(): void&lt;br&gt;+&amp;nbsp;getSessionDesc(): string&lt;br&gt;+&amp;nbsp;getSessionId(): long&lt;br&gt;+&amp;nbsp;getSessionName(): string&lt;br&gt;+&amp;nbsp;isNewState(): boolean&lt;br&gt;+&amp;nbsp;open(): void&lt;br&gt;# parse(): void&lt;br&gt;+&amp;nbsp;save(): void&lt;br&gt;+&amp;nbsp;setSessionDesc(): void&lt;br&gt;+&amp;nbsp;setSessionName(): void&lt;br&gt;+&amp;nbsp;getFileName(): string&lt;br&gt;-&amp;nbsp;saveSiteTree(): void&lt;br&gt;-&amp;nbsp;saveNodeMsg(): void&lt;br&gt;+&amp;nbsp;getSessionFolder(): string" style="text;html=1;strokeColor=none;fillColor=none;align=left;verticalAlign=middle;spacingLeft=4;spacingRight=4;overflow=hidden;rotatable=0;points=[[0,0.5],[1,0.5]];portConstraint=eastwest;" vertex="1" parent="z9THj69x5CB_1z2pLQWC-79">
          <mxGeometry y="178" width="240" height="212" as="geometry" />
        </mxCell>
        <mxCell id="z9THj69x5CB_1z2pLQWC-83" value="&lt;span style=&quot;font-size: 20px&quot;&gt;&lt;b&gt;17.OptionsParam&lt;/b&gt;&lt;/span&gt;" style="swimlane;fontStyle=0;align=center;verticalAlign=top;childLayout=stackLayout;horizontal=1;startSize=40;horizontalStack=0;resizeParent=1;resizeParentMax=0;resizeLast=0;collapsible=0;marginBottom=0;html=1;" vertex="1" parent="1">
          <mxGeometry x="1680" y="560" width="240" height="220" as="geometry" />
        </mxCell>
        <mxCell id="z9THj69x5CB_1z2pLQWC-84" value="- gui: boolean" style="text;html=1;strokeColor=none;fillColor=none;align=left;verticalAlign=middle;spacingLeft=4;spacingRight=4;overflow=hidden;rotatable=0;points=[[0,0.5],[1,0.5]];portConstraint=eastwest;" vertex="1" parent="z9THj69x5CB_1z2pLQWC-83">
          <mxGeometry y="40" width="240" height="30" as="geometry" />
        </mxCell>
        <mxCell id="z9THj69x5CB_1z2pLQWC-85" value="" style="line;strokeWidth=1;fillColor=none;align=left;verticalAlign=middle;spacingTop=-1;spacingLeft=3;spacingRight=3;rotatable=0;labelPosition=right;points=[];portConstraint=eastwest;" vertex="1" parent="z9THj69x5CB_1z2pLQWC-83">
          <mxGeometry y="70" width="240" height="8" as="geometry" />
        </mxCell>
        <mxCell id="z9THj69x5CB_1z2pLQWC-86" value="+&amp;nbsp;setProxyParam(): void&lt;br&gt;+&amp;nbsp;setConnectionParam(): void&lt;br&gt;+&amp;nbsp;setViewParam(): void&lt;br&gt;+&amp;nbsp;setCertificateParam(): void&lt;br&gt;+&amp;nbsp;addParamSet(): void&lt;br&gt;#&amp;nbsp;parse(): void&lt;br&gt;+&amp;nbsp;isGUI(): boolean&lt;br&gt;+&amp;nbsp;setGUI(): void&lt;br&gt;+&amp;nbsp;setUserDirectory(): void" style="text;html=1;strokeColor=none;fillColor=none;align=left;verticalAlign=middle;spacingLeft=4;spacingRight=4;overflow=hidden;rotatable=0;points=[[0,0.5],[1,0.5]];portConstraint=eastwest;" vertex="1" parent="z9THj69x5CB_1z2pLQWC-83">
          <mxGeometry y="78" width="240" height="142" as="geometry" />
        </mxCell>
        <mxCell id="z9THj69x5CB_1z2pLQWC-87" value="&lt;span style=&quot;font-size: 20px&quot;&gt;&lt;b&gt;18.HttpUtil&lt;/b&gt;&lt;/span&gt;" style="swimlane;fontStyle=0;align=center;verticalAlign=top;childLayout=stackLayout;horizontal=1;startSize=40;horizontalStack=0;resizeParent=1;resizeParentMax=0;resizeLast=0;collapsible=0;marginBottom=0;html=1;" vertex="1" parent="1">
          <mxGeometry x="1960" y="560" width="240" height="140" as="geometry" />
        </mxCell>
        <mxCell id="z9THj69x5CB_1z2pLQWC-89" value="" style="line;strokeWidth=1;fillColor=none;align=left;verticalAlign=middle;spacingTop=-1;spacingLeft=3;spacingRight=3;rotatable=0;labelPosition=right;points=[];portConstraint=eastwest;" vertex="1" parent="z9THj69x5CB_1z2pLQWC-87">
          <mxGeometry y="40" width="240" height="20" as="geometry" />
        </mxCell>
        <mxCell id="z9THj69x5CB_1z2pLQWC-90" value="+&amp;nbsp;sleep(): void&lt;br&gt;+&amp;nbsp;closeServerSocket(): void&lt;br&gt;+&amp;nbsp;closeSocket(): void&lt;br&gt;+&amp;nbsp;closeInputStream(): void&lt;br&gt;+&amp;nbsp;closeOutputStream(): void" style="text;html=1;strokeColor=none;fillColor=none;align=left;verticalAlign=middle;spacingLeft=4;spacingRight=4;overflow=hidden;rotatable=0;points=[[0,0.5],[1,0.5]];portConstraint=eastwest;" vertex="1" parent="z9THj69x5CB_1z2pLQWC-87">
          <mxGeometry y="60" width="240" height="80" as="geometry" />
        </mxCell>
        <mxCell id="z9THj69x5CB_1z2pLQWC-91" value="&lt;span style=&quot;font-size: 20px&quot;&gt;&lt;b&gt;19.View&lt;/b&gt;&lt;/span&gt;" style="swimlane;fontStyle=0;align=center;verticalAlign=top;childLayout=stackLayout;horizontal=1;startSize=40;horizontalStack=0;resizeParent=1;resizeParentMax=0;resizeLast=0;collapsible=0;marginBottom=0;html=1;" vertex="1" parent="1">
          <mxGeometry x="2240" y="560" width="240" height="202" as="geometry" />
        </mxCell>
        <mxCell id="z9THj69x5CB_1z2pLQWC-93" value="" style="line;strokeWidth=1;fillColor=none;align=left;verticalAlign=middle;spacingTop=-1;spacingLeft=3;spacingRight=3;rotatable=0;labelPosition=right;points=[];portConstraint=eastwest;" vertex="1" parent="z9THj69x5CB_1z2pLQWC-91">
          <mxGeometry y="40" width="240" height="20" as="geometry" />
        </mxCell>
        <mxCell id="z9THj69x5CB_1z2pLQWC-94" value="+&amp;nbsp;init(): void&lt;br&gt;+&amp;nbsp;postInit()" style="text;html=1;strokeColor=none;fillColor=none;align=left;verticalAlign=middle;spacingLeft=4;spacingRight=4;overflow=hidden;rotatable=0;points=[[0,0.5],[1,0.5]];portConstraint=eastwest;" vertex="1" parent="z9THj69x5CB_1z2pLQWC-91">
          <mxGeometry y="60" width="240" height="142" as="geometry" />
        </mxCell>
      </root>
    </mxGraphModel>
  </diagram>
</mxfile>
